<?xml version="1.0" encoding="UTF-8" standalone="no"?>
<!-- Created with Inkscape (http://www.inkscape.org/) -->

<svg
   xmlns:dc="http://purl.org/dc/elements/1.1/"
   xmlns:cc="http://creativecommons.org/ns#"
   xmlns:rdf="http://www.w3.org/1999/02/22-rdf-syntax-ns#"
   xmlns:svg="http://www.w3.org/2000/svg"
   xmlns="http://www.w3.org/2000/svg"
   xmlns:sodipodi="http://sodipodi.sourceforge.net/DTD/sodipodi-0.dtd"
   xmlns:inkscape="http://www.inkscape.org/namespaces/inkscape"
   width="60mm"
   height="20mm"
   viewBox="0 0 60 20"
   version="1.1"
   id="svg8"
   inkscape:version="0.92.4 5da689c313, 2019-01-14"
   sodipodi:docname="logo.svg">
  <defs
     id="defs2" />
  <sodipodi:namedview
     id="base"
     pagecolor="#ffffff"
     bordercolor="#666666"
     borderopacity="1.0"
     inkscape:pageopacity="0.0"
     inkscape:pageshadow="2"
     inkscape:zoom="2.8"
     inkscape:cx="178.33163"
     inkscape:cy="47.141003"
     inkscape:document-units="mm"
     inkscape:current-layer="layer1"
     showgrid="true"
     inkscape:window-width="1920"
     inkscape:window-height="1017"
     inkscape:window-x="0"
     inkscape:window-y="0"
     inkscape:window-maximized="1"
     inkscape:snap-bbox="false"
     inkscape:snap-bbox-midpoints="true"
     inkscape:snap-object-midpoints="true">
    <inkscape:grid
       type="xygrid"
       id="grid2119" />
  </sodipodi:namedview>
  <metadata
     id="metadata5">
    <rdf:RDF>
      <cc:Work
         rdf:about="">
        <dc:format>image/svg+xml</dc:format>
        <dc:type
           rdf:resource="http://purl.org/dc/dcmitype/StillImage" />
        <dc:title></dc:title>
      </cc:Work>
    </rdf:RDF>
  </metadata>
  <g
     inkscape:label="Layer 1"
     inkscape:groupmode="layer"
     id="layer1"
     transform="translate(0,-277)">
    <g
       id="g1519"
       transform="matrix(1.049155,0,0,1.049155,-13.190531,137.68158)"
       style="fill:#4d4d4d">
      <g
         id="text817"
         style="font-style:normal;font-variant:normal;font-weight:normal;font-stretch:normal;font-size:8.46666622px;line-height:6.61458302px;font-family:MadokaRunes;-inkscape-font-specification:MadokaRunes;font-variant-ligatures:normal;font-variant-caps:normal;font-variant-numeric:normal;font-feature-settings:normal;text-align:start;letter-spacing:0px;word-spacing:0px;writing-mode:lr-tb;text-anchor:start;fill:#4d4d4d;fill-opacity:1;stroke:none;stroke-width:0.26458332px;stroke-linecap:butt;stroke-linejoin:miter;stroke-opacity:1"
         aria-label="Curiosity ">
        <path
           id="path1454"
           style="font-style:normal;font-variant:normal;font-weight:normal;font-stretch:normal;font-family:MadokaRunes;-inkscape-font-specification:MadokaRunes;stroke-width:0.26458332px;fill:#4d4d4d"
           d="m 19.743444,139.04731 q 0.227376,-0.004 0.392741,-0.11162 0.09922,-0.0744 0.09095,-0.21911 -0.0083,-0.1447 -0.09095,-0.24392 -0.09922,-0.10748 -0.338998,-0.10335 -0.08268,0.008 -0.144694,0.0455 -0.06201,0.0372 -0.09508,0.0827 -0.02894,0.0455 -0.04961,0.13229 -0.01654,0.0868 -0.02067,0.14469 -0.0041,0.0538 -0.0083,0.1571 0,0.0331 0,0.0537 -0.0248,0.45476 0.0083,1.02113 0.0124,0.15296 0.09095,0.23565 0.08268,0.0827 0.181901,0.0951 0.310059,0.0372 0.657325,-0.004 0.132291,-0.0165 0.23151,-0.0868 0.09922,-0.0744 0.148828,-0.17777 0.05374,-0.10335 0.08682,-0.23151 0.03721,-0.13229 0.04134,-0.26458 0.0083,-0.13643 0.0124,-0.26872 0.0041,-0.13642 -0.0041,-0.24391 -0.02481,0.0289 -0.05788,0.0537 -0.02894,0.0248 -0.07028,0.0455 -0.03721,0.0207 -0.06615,0.0372 -0.02894,0.0124 -0.07855,0.0289 -0.04547,0.0124 -0.06615,0.0207 -0.02067,0.004 -0.07028,0.0165 -0.04961,0.0124 -0.05788,0.0124 -0.181901,0.0455 -0.384473,-0.0248 -0.198437,-0.0703 -0.338997,-0.20257 z m -2.038119,-0.0413 q 0.02067,0.008 0.04134,0.0207 0.0248,0.008 0.04134,0.0165 0.02067,0.004 0.04547,0.0124 0.02894,0.004 0.04134,0.008 0.0124,0 0.04961,0.008 0.03721,0.004 0.04961,0.008 0.0124,0 0.05788,0.008 0.04961,0.004 0.06614,0.008 -0.103353,0.11575 -0.338997,0.1819 -0.173633,0.0537 -0.384473,0.008 v 0.63665 q 0.0041,0.16123 0.103353,0.27285 0.07028,0.0827 0.28112,0.091 0.21084,0.004 0.322461,-0.0786 0.07441,-0.0579 0.09509,-0.12815 0.0248,-0.0703 0.0248,-0.19017 l -0.0041,-1.17409 q 0,-0.11576 -0.03307,-0.19017 -0.02894,-0.0786 -0.115755,-0.13643 -0.05788,-0.0413 -0.219108,-0.0413 -0.157096,-0.004 -0.223242,0.0289 -0.07441,0.0372 -0.107487,0.13643 -0.03307,0.0951 -0.02067,0.17776 0.04134,0.22324 0.227376,0.3142 z M 14.629544,134.938 q 0.111621,-0.0579 0.305925,-0.18604 0.186035,0.15296 0.401009,0.25218 0.214974,0.0992 0.396875,0.1447 0.186035,0.0413 0.434082,0.0579 0.252181,0.0124 0.417545,0.004 0.169499,-0.008 0.450619,-0.0248 0.28112,-0.0165 0.429948,-0.0207 0.248047,-0.008 0.363802,-0.0496 0.02894,-0.008 0.08682,-0.0951 0.02481,-0.0331 0.03307,-0.008 0.06615,0.18604 0.157097,0.42168 0.09508,0.23151 0.111621,0.27699 -0.07028,-0.004 -0.152963,-0.0579 -0.07855,-0.0579 -0.09508,-0.062 -0.08268,-0.0331 -0.157097,0.0413 -0.07441,0.0744 -0.128157,0.21911 -0.04961,0.14469 -0.08682,0.28525 -0.03307,0.14056 -0.05374,0.28112 -0.03721,0.23978 -0.07028,0.75241 -0.03307,0.51263 -0.03307,0.76481 h 2.988965 q 0.186035,0 0.330729,0.15296 0.148828,0.14883 0.21084,0.33073 0,-0.16536 0.01654,-0.58704 0.01654,-0.42582 0.02067,-0.57878 0.01654,-0.22324 0.0041,-0.5581 -0.0083,-0.339 -0.07855,-0.54571 -0.08268,-0.23564 -0.314193,-0.3638 -0.07028,-0.0372 -0.144694,-0.0537 -0.07028,-0.0207 -0.136426,-0.0207 -0.06615,-0.004 -0.148828,-0.004 -0.08268,0 -0.181901,-0.004 0.107487,-0.0992 0.152962,-0.17777 -0.01654,-0.0165 -0.05788,-0.0661 -0.04134,-0.0538 -0.07441,-0.0868 -0.02894,-0.0372 -0.05788,-0.062 0.487826,0.0372 1.107943,0.0579 0.624251,0.0207 0.95498,0.0207 0.330729,0 1.112077,0 -0.02067,0.0165 -0.06201,0.0661 -0.03721,0.0496 -0.04547,0.0579 0.09922,0.0331 0.148828,0.0661 -0.03307,0.0289 -0.09095,0.062 -0.05374,0.0289 -0.08682,0.0661 -0.09508,0.10749 -0.16123,0.28112 -0.06201,0.17363 -0.09095,0.40928 -0.02894,0.23151 -0.04134,0.37207 -0.0083,0.14056 -0.01654,0.35967 -0.05374,1.83141 0.04961,2.97656 0.03307,0.40101 0.07441,0.48369 0.0124,0.0331 0.06615,0.091 0.05374,0.0579 0.08268,0.0992 0.03307,0.0372 0.01654,0.0413 -0.231511,0.0786 -0.372071,0.0289 0.0041,0.0455 0.02067,0.1571 h -7.102409 q -0.05374,0 -0.111621,0.008 -0.05788,0.004 -0.169498,0.0207 -0.107487,0.0124 -0.198438,0.0248 -0.0041,-0.062 -0.02481,-0.23151 0.206706,-0.0289 0.372071,-0.16536 0.165364,-0.14056 0.173633,-0.28526 0.103352,-2.00918 0.07028,-3.86953 -0.0041,-0.14883 -0.02067,-0.23978 -0.0124,-0.0951 -0.05788,-0.23978 -0.04134,-0.14469 -0.05788,-0.21497 -0.04134,-0.1571 -0.148828,-0.339 -0.103353,-0.18603 -0.206706,-0.26872 -0.07855,-0.062 -0.152962,-0.0992 -0.07028,-0.0413 -0.194304,-0.091 -0.124023,-0.0496 -0.177767,-0.0785 z"
           inkscape:connector-curvature="0" />
        <path
           id="path1456"
           style="font-style:normal;font-variant:normal;font-weight:normal;font-stretch:normal;font-family:MadokaRunes;-inkscape-font-specification:MadokaRunes;stroke-width:0.26458332px;fill:#4d4d4d"
           d="m 27.738821,139.14653 q 0,-0.40515 -0.21084,-0.66973 -0.206706,-0.26458 -0.541569,-0.26458 -0.326595,0 -0.520898,0.27698 -0.194304,0.27699 -0.194304,0.68626 0,0.40515 0.19017,0.63666 0.194303,0.23151 0.525032,0.23151 0.334863,0 0.541569,-0.24805 0.21084,-0.24805 0.21084,-0.64905 z m -1.182357,-3.41065 q 0.03307,-0.0662 -0.0124,-0.11575 -0.04134,-0.0496 -0.128158,-0.0744 -0.08682,-0.0248 -0.177766,-0.0372 -0.09095,-0.0124 -0.152963,-0.008 -0.748274,0.0496 -1.339453,0.69866 -0.334863,0.3638 -0.496093,0.8599 -0.161231,0.49609 -0.09508,1.03766 0.02894,0.23151 0.132292,0.46302 0.107487,0.22738 0.256315,0.41341 0.152962,0.1819 0.30179,0.32246 0.148828,0.14056 0.305924,0.25218 -0.07441,-0.31005 0.02481,-0.7152 0.119889,-0.50023 0.520899,-0.80615 0.405143,-0.30592 0.917773,-0.34313 0.516764,-0.0413 0.909505,0.0992 0.396875,0.13642 0.7028,0.52503 0.23151,0.29766 0.276985,0.71107 0.04961,0.41341 -0.115755,0.82269 -0.248047,0.5705 -0.644922,0.82682 -0.396875,0.25218 -1.008724,0.30179 -0.227376,0.0207 -0.421679,0.0289 -0.194304,0.004 -0.442351,-0.004 -0.248047,-0.008 -0.458886,-0.0413 -0.21084,-0.0331 -0.446485,-0.0992 -0.235644,-0.0703 -0.434082,-0.16949 -0.194303,-0.10336 -0.388606,-0.26045 -0.19017,-0.16123 -0.343132,-0.36381 -0.334863,-0.45888 -0.405143,-1.21543 -0.06201,-0.65732 0.04961,-1.24023 0.111621,-0.58291 0.413412,-1.15755 0.322461,-0.60772 0.826823,-0.97979 0.508496,-0.37207 1.141015,-0.47542 0.367936,-0.0579 0.698665,0.0372 0.33073,0.0951 0.566374,0.37207 0.28112,0.33899 0.248047,0.71933 -0.03307,0.37621 -0.363802,0.69453 -0.103353,0.0992 -0.243913,0.1447 -0.14056,0.0455 -0.285254,0.0413 -0.14056,-0.008 -0.28112,-0.0662 -0.136425,-0.062 -0.239778,-0.15709 -0.09922,-0.0992 -0.148828,-0.25218 -0.04961,-0.1571 -0.02481,-0.339 0.02067,-0.14056 0.103353,-0.23978 0.08268,-0.10335 0.202571,-0.14469 0.06201,-0.0248 0.181902,-0.0289 0.124023,-0.004 0.214973,-0.008 0.09095,-0.004 0.103353,-0.0289 z"
           inkscape:connector-curvature="0" />
        <path
           id="path1458"
           style="font-style:normal;font-variant:normal;font-weight:normal;font-stretch:normal;font-family:MadokaRunes;-inkscape-font-specification:MadokaRunes;stroke-width:0.26458332px;fill:#4d4d4d"
           d="m 31.612486,135.17364 q 0.198438,0.21498 0.198438,0.5209 0,0.30179 -0.198438,0.51676 -0.198437,0.21498 -0.479557,0.21498 -0.276986,0 -0.475423,-0.21498 -0.198438,-0.21497 -0.198438,-0.51676 0,-0.30592 0.198438,-0.5209 0.198437,-0.21911 0.475423,-0.21911 0.28112,0 0.479557,0.21911 z m 1.000456,1.33532 q 0.04961,-0.0579 0.239779,-0.0579 0.144694,0 0.132291,0.0538 0,0.008 -0.0041,0.0207 -0.396875,0.59944 -0.632519,1.0542 -0.231511,0.45475 -0.405143,1.04593 -0.103353,0.34726 -0.11989,0.72347 -0.01654,0.37207 0.06201,0.7276 0.08268,0.35553 0.260449,0.59531 0.03721,0.0496 0.05788,0.10336 0.0248,0.0496 0.02894,0.10335 0.0041,0.0537 -0.03721,0.0868 -0.03721,0.0331 -0.124023,0.0331 h -2.497005 q -0.08682,0 -0.157096,-0.0827 -0.07028,-0.0868 -0.08268,-0.1695 -0.0041,-0.0207 0,-0.0413 0.0041,-0.0207 0.01654,-0.0455 0.0124,-0.0248 0.02067,-0.0413 0.0124,-0.0207 0.03721,-0.0496 0.02481,-0.0289 0.03721,-0.0413 0.0124,-0.0124 0.04134,-0.0455 0.02894,-0.0331 0.03721,-0.0413 0.08682,-0.0992 0.39274,-0.51676 0.305925,-0.42168 0.686263,-0.95085 0.384473,-0.5333 0.558106,-0.76067 -0.347266,0.0661 -0.657324,0.062 -0.310059,-0.008 -0.578776,-0.11576 -0.268718,-0.10749 -0.475423,-0.28939 -0.202572,-0.1819 -0.33073,-0.45888 -0.128157,-0.28112 -0.16123,-0.63252 -0.03307,-0.38034 0.07028,-0.81442 0.103353,-0.43822 0.322461,-0.77308 0.04134,-0.062 0.09922,-0.10336 0.06201,-0.0455 0.115755,-0.0537 0.05788,-0.008 0.09095,0.0496 0.02067,0.0413 0.0248,0.1695 0.0083,0.12816 0.0041,0.30592 -0.0041,0.17364 -0.0041,0.19844 0.0083,0.41341 0.07855,0.67386 0.07441,0.25632 0.248047,0.42995 0.334863,0.34313 1.09554,0.3762 0.405144,0.0165 0.818555,-0.19843 0.413411,-0.21498 0.690397,-0.52917 z"
           inkscape:connector-curvature="0" />
        <path
           id="path1460"
           style="font-style:normal;font-variant:normal;font-weight:normal;font-stretch:normal;font-family:MadokaRunes;-inkscape-font-specification:MadokaRunes;stroke-width:0.26458332px;fill:#4d4d4d"
           d="m 35.920234,134.98761 h 1.542025 q 0.314192,0 -0.169499,0.52916 -0.0124,0.008 -0.01654,0.0165 -0.206705,0.22738 -0.334863,0.38447 -0.128157,0.15296 -0.293522,0.39688 -0.16123,0.23978 -0.248047,0.46302 -0.115755,0.28939 -0.206705,0.57877 -0.09095,0.28526 -0.165365,0.63252 -0.07028,0.34727 -0.08682,0.66146 -0.01654,0.31006 0.04134,0.62839 0.05788,0.31832 0.198437,0.5705 0.169499,0.29766 0.450619,0.43409 0.285254,0.13642 0.566373,0.0744 0.235645,-0.0537 0.446485,-0.35967 0.214974,-0.30592 0.268717,-0.61185 0.04547,-0.29352 -0.02894,-0.58704 -0.07441,-0.29766 -0.256315,-0.37207 -0.107487,-0.0455 -0.16123,0.0455 -0.04548,0.0827 0.02894,0.1323 0.0248,0.0165 0.06201,0.0248 0.111621,0.0207 0.152962,0.14056 0.04134,0.11989 0.0041,0.26872 -0.03307,0.14883 -0.132292,0.26045 -0.103353,0.11989 -0.264583,0.18603 -0.157097,0.062 -0.322461,0.0537 -0.380339,-0.0124 -0.529167,-0.29353 -0.128157,-0.24391 -0.0041,-0.56637 0.124023,-0.32659 0.3514,-0.50023 0.248047,-0.1943 0.553971,-0.1943 0.16123,-0.004 0.314193,0.0413 0.152962,0.0413 0.285254,0.13229 0.136425,0.0909 0.235644,0.25218 0.09922,0.16123 0.132292,0.37621 0.07855,0.45475 0.0083,0.82269 -0.07028,0.3638 -0.297656,0.69866 -0.227377,0.34313 -0.545703,0.50436 -0.318327,0.16123 -0.611849,0.16537 -0.227377,0.008 -0.425814,-0.0661 -0.198438,-0.0744 -0.3514,-0.2067 -0.152962,-0.1323 -0.264583,-0.28526 -0.111621,-0.15709 -0.190169,-0.33486 -0.107487,-0.23565 -0.169499,-0.5457 -0.05788,-0.3142 -0.05374,-0.61599 0.0041,-0.70693 0.08268,-1.09967 0.0248,-0.11576 -0.0041,-0.1695 -0.02894,-0.0579 -0.09508,-0.0537 -0.06201,0.004 -0.132292,0.0413 -0.07028,0.0331 -0.132291,0.0868 -0.500228,0.43409 -0.690397,0.85577 -0.14056,0.31419 -0.169499,0.66559 -0.02481,0.34726 0.06615,0.63252 0.09508,0.30592 0.272851,0.50436 0.177767,0.19844 0.434082,0.35967 0.05788,0.0372 0.06615,0.0992 0.0124,0.062 -0.02481,0.11162 -0.03307,0.0455 -0.08268,0.0413 l -0.992187,-0.0868 q -0.181901,-0.0124 -0.347266,-0.19017 -0.16123,-0.1819 -0.252181,-0.41341 -0.08682,-0.23151 -0.09508,-0.43408 -0.01654,-0.28525 0.03721,-0.54984 0.05374,-0.26872 0.140559,-0.46715 0.08682,-0.20257 0.239779,-0.41755 0.157096,-0.21911 0.293522,-0.36793 0.136426,-0.14883 0.338998,-0.3514 0.260449,-0.25632 0.562239,-0.44649 0.30179,-0.19017 0.744141,-0.40514 0.04134,-0.10749 0.173632,-0.37207 0.132292,-0.26872 0.165365,-0.339 0.01654,-0.0331 0.06201,-0.12816 0.04961,-0.0992 0.06615,-0.14056 0.01654,-0.0413 0.04134,-0.11162 0.02894,-0.0703 0.03307,-0.12402 0.0041,-0.0579 0,-0.11162 -0.0124,-0.0992 -0.06615,-0.14056 -0.04961,-0.0413 -0.107487,-0.0372 -0.05374,0 -0.124024,-0.008 -0.07028,-0.0124 -0.111621,-0.0537 -0.09095,-0.0909 -0.05788,-0.20257 0.03307,-0.11162 0.152962,-0.11162 z"
           inkscape:connector-curvature="0" />
        <path
           id="path1462"
           style="font-style:normal;font-variant:normal;font-weight:normal;font-stretch:normal;font-family:MadokaRunes;-inkscape-font-specification:MadokaRunes;stroke-width:0.26458332px;fill:#4d4d4d"
           d="m 40.223847,135.85577 q 0.186035,0.0124 0.318326,0.16123 0.09509,0.11162 0.11989,0.27699 0.02894,0.16123 -0.0083,0.32246 -0.03307,0.15709 -0.107487,0.29765 -0.06201,0.10749 -0.186035,0.19844 -0.119889,0.0909 -0.256315,0.11989 -0.132291,0.0331 -0.124023,0.0827 0.0124,0.0579 0.152962,0.0786 0.04547,0.008 0.09095,0.004 0.330729,-0.0331 0.570507,-0.23151 0.239779,-0.19843 0.289388,-0.57877 0.03721,-0.40514 -0.115755,-0.68626 -0.268717,-0.49196 -0.93431,-0.38861 -0.223242,0.0331 -0.429948,0.2067 -0.206705,0.17364 -0.289388,0.45889 -0.107487,0.3638 0.03721,0.71107 0.09095,0.21911 0.405144,0.26872 0.07028,0.0165 0.14056,0.0124 0.07028,-0.008 0.107486,-0.062 0.08682,-0.12403 0.0124,-0.27699 -0.02894,-0.0537 -0.09095,-0.0124 -0.05788,0.0372 -0.136425,0.0124 -0.07442,-0.0289 -0.136426,-0.0992 -0.09095,-0.10748 -0.111621,-0.27285 -0.0124,-0.14469 0.07441,-0.28112 0.08682,-0.14056 0.214974,-0.22738 0.16123,-0.11162 0.392741,-0.0951 z m -0.446485,2.07119 q -0.702799,-0.38447 -0.901237,-0.91777 -0.115755,-0.31833 -0.07028,-0.76068 0.04134,-0.41754 0.301791,-0.74827 0.417545,-0.52504 1.124479,-0.52917 0.657324,0 1.008724,0.48783 0.367936,0.51676 0.310058,1.17822 -0.02067,0.21084 -0.09922,0.39687 -0.07442,0.1819 -0.202572,0.33073 -0.124024,0.1447 -0.235645,0.23978 -0.111621,0.0951 -0.268717,0.20671 -0.06615,0.0455 -0.227376,0.15296 -0.157097,0.10749 -0.248047,0.17363 -0.08682,0.0661 -0.21084,0.1695 -0.124023,0.10335 -0.21084,0.21497 -0.08268,0.11162 -0.14056,0.23978 -0.06615,0.1447 -0.107487,0.34313 -0.03721,0.19844 -0.02067,0.33073 0.04134,0.42168 0.285254,0.69453 0.16123,0.18191 0.37207,0.26872 0.214974,0.0868 0.425814,0.0827 0.210839,-0.008 0.417545,-0.0909 0.276986,-0.11575 0.529167,-0.3638 0.243913,-0.24391 0.248047,-0.72347 0,-0.18603 -0.07441,-0.31833 -0.07441,-0.13642 -0.177767,-0.19843 -0.09095,-0.0579 -0.09095,0.0868 0,0.0289 0.0083,0.0951 0.0041,0.0537 0.0041,0.0661 -0.0041,0.11163 -0.0124,0.19844 -0.0083,0.0827 -0.0248,0.1695 -0.0124,0.0827 -0.03721,0.14469 -0.02481,0.062 -0.06201,0.11576 -0.03721,0.0537 -0.09095,0.0868 -0.04961,0.0331 -0.119889,0.0537 -0.06615,0.0165 -0.157096,0.0165 -0.09095,0 -0.202572,-0.0207 -0.252181,-0.0496 -0.380339,-0.24805 -0.124023,-0.19844 -0.124023,-0.51263 0,-0.29766 0.165365,-0.55811 0.169498,-0.26045 0.384472,-0.33073 0.157097,-0.0372 0.318327,-0.0207 0.161231,0.0165 0.256315,0.0538 0.516764,0.21497 0.735873,0.62425 0.223242,0.40514 0.111621,0.97565 -0.04961,0.24391 -0.181901,0.44235 -0.132292,0.1943 -0.334864,0.38034 -0.310058,0.28525 -0.756543,0.36793 -0.44235,0.0785 -0.855761,-0.0868 -0.186035,-0.0786 -0.363802,-0.21911 -0.173633,-0.14469 -0.297657,-0.3266 -0.285253,-0.41341 -0.310058,-0.83509 -0.01654,-0.23564 0.02481,-0.45888 0.04548,-0.22325 0.148828,-0.43409 0.103352,-0.21084 0.186035,-0.34726 0.08682,-0.13643 0.23151,-0.339 z"
           inkscape:connector-curvature="0" />
        <path
           id="path1464"
           style="font-style:normal;font-variant:normal;font-weight:normal;font-stretch:normal;font-family:MadokaRunes;-inkscape-font-specification:MadokaRunes;stroke-width:0.26458332px;fill:#4d4d4d"
           d="m 44.089243,139.71703 q 0.239779,0.21911 0.239779,0.5333 0,0.31006 -0.239779,0.5333 -0.235644,0.21911 -0.570508,0.21911 -0.330729,0 -0.570507,-0.21911 -0.235645,-0.22324 -0.235645,-0.5333 0,-0.31419 0.235645,-0.5333 0.239778,-0.22324 0.570507,-0.22324 0.334864,0 0.570508,0.22324 z m 0,-2.25722 q 0.239779,0.2191 0.239779,0.52916 0,0.31006 -0.239779,0.5333 -0.235644,0.21911 -0.570508,0.21911 -0.330729,0 -0.570507,-0.21911 -0.235645,-0.22324 -0.235645,-0.5333 0,-0.31006 0.235645,-0.52916 0.239778,-0.22325 0.570507,-0.22325 0.334864,0 0.570508,0.22325 z m 0,-2.26136 q 0.239779,0.2191 0.239779,0.5333 0,0.31006 -0.239779,0.5333 -0.235644,0.21911 -0.570508,0.21911 -0.330729,0 -0.570507,-0.21911 -0.235645,-0.22324 -0.235645,-0.5333 0,-0.3142 0.235645,-0.5333 0.239778,-0.22325 0.570507,-0.22325 0.334864,0 0.570508,0.22325 z"
           inkscape:connector-curvature="0" />
        <path
           id="path1466"
           style="font-style:normal;font-variant:normal;font-weight:normal;font-stretch:normal;font-family:MadokaRunes;-inkscape-font-specification:MadokaRunes;stroke-width:0.26458332px;fill:#4d4d4d"
           d="m 47.297317,134.98761 h 1.542024 q 0.314193,0 -0.169498,0.52916 -0.0124,0.008 -0.01654,0.0165 -0.206705,0.22738 -0.334863,0.38447 -0.128158,0.15296 -0.293522,0.39688 -0.161231,0.23978 -0.248047,0.46302 -0.115755,0.28939 -0.206706,0.57877 -0.09095,0.28526 -0.165364,0.63252 -0.07028,0.34727 -0.08682,0.66146 -0.01654,0.31006 0.04134,0.62839 0.05788,0.31832 0.198437,0.5705 0.169499,0.29766 0.450618,0.43409 0.285254,0.13642 0.566374,0.0744 0.235645,-0.0537 0.446484,-0.35967 0.214974,-0.30592 0.268718,-0.61185 0.04547,-0.29352 -0.02894,-0.58704 -0.07441,-0.29766 -0.256315,-0.37207 -0.107487,-0.0455 -0.16123,0.0455 -0.04548,0.0827 0.02894,0.1323 0.02481,0.0165 0.06201,0.0248 0.111621,0.0207 0.152962,0.14056 0.04134,0.11989 0.0041,0.26872 -0.03307,0.14883 -0.132291,0.26045 -0.103353,0.11989 -0.264584,0.18603 -0.157096,0.062 -0.32246,0.0537 -0.380339,-0.0124 -0.529167,-0.29353 -0.128158,-0.24391 -0.0041,-0.56637 0.124023,-0.32659 0.351399,-0.50023 0.248047,-0.1943 0.553972,-0.1943 0.16123,-0.004 0.314193,0.0413 0.152962,0.0413 0.285253,0.13229 0.136426,0.0909 0.235645,0.25218 0.09922,0.16123 0.132292,0.37621 0.07855,0.45475 0.0083,0.82269 -0.07028,0.3638 -0.297656,0.69866 -0.227377,0.34313 -0.545704,0.50436 -0.318326,0.16123 -0.611848,0.16537 -0.227377,0.008 -0.425814,-0.0661 -0.198438,-0.0744 -0.3514,-0.2067 -0.152962,-0.1323 -0.264583,-0.28526 -0.111621,-0.15709 -0.19017,-0.33486 -0.107487,-0.23565 -0.169498,-0.5457 -0.05788,-0.3142 -0.05374,-0.61599 0.0041,-0.70693 0.08268,-1.09967 0.0248,-0.11576 -0.0041,-0.1695 -0.02894,-0.0579 -0.09508,-0.0537 -0.06201,0.004 -0.132292,0.0413 -0.07028,0.0331 -0.132291,0.0868 -0.500228,0.43409 -0.690398,0.85577 -0.140559,0.31419 -0.169498,0.66559 -0.02481,0.34726 0.06615,0.63252 0.09508,0.30592 0.272851,0.50436 0.177767,0.19844 0.434082,0.35967 0.05788,0.0372 0.06615,0.0992 0.0124,0.062 -0.02481,0.11162 -0.03307,0.0455 -0.08268,0.0413 l -0.992187,-0.0868 q -0.181902,-0.0124 -0.347266,-0.19017 -0.161231,-0.1819 -0.252181,-0.41341 -0.08682,-0.23151 -0.09508,-0.43408 -0.01654,-0.28525 0.03721,-0.54984 0.05374,-0.26872 0.14056,-0.46715 0.08682,-0.20257 0.239779,-0.41755 0.157096,-0.21911 0.293522,-0.36793 0.136426,-0.14883 0.338997,-0.3514 0.26045,-0.25632 0.56224,-0.44649 0.30179,-0.19017 0.74414,-0.40514 0.04134,-0.10749 0.173633,-0.37207 0.132292,-0.26872 0.165365,-0.339 0.01654,-0.0331 0.06201,-0.12816 0.04961,-0.0992 0.06614,-0.14056 0.01654,-0.0413 0.04134,-0.11162 0.02894,-0.0703 0.03307,-0.12402 0.0041,-0.0579 0,-0.11162 -0.0124,-0.0992 -0.06614,-0.14056 -0.04961,-0.0413 -0.107487,-0.0372 -0.05374,0 -0.124024,-0.008 -0.07028,-0.0124 -0.111621,-0.0537 -0.09095,-0.0909 -0.05788,-0.20257 0.03307,-0.11162 0.152962,-0.11162 z"
           inkscape:connector-curvature="0" />
        <path
           id="path1468"
           style="font-style:normal;font-variant:normal;font-weight:normal;font-stretch:normal;font-family:MadokaRunes;-inkscape-font-specification:MadokaRunes;stroke-width:0.26458332px;fill:#4d4d4d"
           d="m 53.907763,136.26918 q 0.0083,0.17777 -0.07441,0.3638 -0.07855,0.18604 -0.21084,0.27699 -0.219108,0.14469 -0.471289,0.15296 -0.248047,0.004 -0.46302,-0.10335 -0.21084,-0.11162 -0.355534,-0.30179 -0.148828,-0.19844 -0.173633,-0.40928 -0.02067,-0.21497 0.05374,-0.38447 0.07441,-0.17363 0.223243,-0.31833 0.574641,-0.57051 1.273307,-0.57051 0.326595,0.004 0.611849,0.11989 0.289388,0.11162 0.578776,0.35554 0.450618,0.38034 0.682129,1.25263 0.190169,0.69453 0.08268,1.46761 -0.194303,1.39733 -0.818555,2.0712 -0.620117,0.67386 -1.744596,0.74414 -0.814421,0.0496 -1.480013,-0.30593 -0.665592,-0.35553 -1.045931,-1.05833 -0.429948,-0.78962 -0.434082,-1.67845 -0.0041,-0.42168 0.06201,-0.76481 0.07028,-0.34727 0.256315,-0.6904 0.194303,-0.37207 0.359668,-0.59945 0.169499,-0.22737 0.434082,-0.41754 -0.243913,0.55397 -0.264583,0.88883 -0.04961,0.69453 0.206705,1.36013 0.256315,0.66145 0.677995,1.03766 0.272852,0.23978 0.615983,0.36793 0.347266,0.12816 0.694531,0.12403 0.347266,-0.008 0.669727,-0.11162 0.322461,-0.10749 0.578776,-0.33487 0.260449,-0.22737 0.401009,-0.53743 0.272851,-0.60772 0.219108,-1.13275 -0.06615,-0.59531 -0.314193,-0.98392 -0.248047,-0.3886 -0.698665,-0.64079 -0.115755,-0.0661 -0.305925,-0.0992 -0.186035,-0.0331 -0.338997,-0.004 -0.148828,0.0289 -0.14056,0.13643 0.0083,0.0703 0.08268,0.11575 0.07855,0.0455 0.198438,0.0868 0.119889,0.0413 0.165365,0.0744 0.107487,0.0744 0.152962,0.1819 0.04548,0.10336 0.05374,0.26872 z"
           inkscape:connector-curvature="0" />
        <path
           id="path1470"
           style="font-style:normal;font-variant:normal;font-weight:normal;font-stretch:normal;font-family:MadokaRunes;-inkscape-font-specification:MadokaRunes;stroke-width:0.26458332px;fill:#4d4d4d"
           d="m 59.195296,134.9752 q 0.214974,0.004 0.429948,0.0331 1.161686,0.14882 1.843815,1.26504 0.67386,1.1038 0.401009,2.24895 -0.28112,1.14102 -1.16582,1.72393 0.785481,0.39687 1.686718,-0.35967 -0.206705,1.14929 -1.814876,1.10381 h -4.043164 q -0.343131,-0.062 -0.37207,-0.33073 -0.198438,-1.88102 0.107487,-3.56774 0.173633,-0.95911 1.186491,-1.5999 0.822688,-0.5209 1.740462,-0.51677 z m 0.02894,0.66146 q -0.388607,0.004 -0.802019,0.19844 -1.107942,0.51263 -1.223697,1.59163 -0.11989,1.08314 0.334863,1.757 0.467155,0.68627 1.37666,0.83923 -0.51263,-0.81856 -0.305924,-1.7446 0.206705,-0.92191 1.128613,-1.03353 0.802018,-0.0786 0.950846,0.64079 0.107487,0.5085 -0.305924,0.74827 -0.442351,0.25632 -0.909506,-0.0289 0.152963,0.63665 0.541569,1.08727 1.190625,-0.45062 1.298112,-1.57923 0.107487,-1.13275 -0.839225,-1.96371 -0.591178,-0.51676 -1.244368,-0.51263 z"
           inkscape:connector-curvature="0" />
      </g>
      <g
         id="text827"
         style="font-style:normal;font-variant:normal;font-weight:normal;font-stretch:normal;font-size:8.46666622px;line-height:6.61458302px;font-family:MadokaRunes;-inkscape-font-specification:MadokaRunes;font-variant-ligatures:normal;font-variant-caps:normal;font-variant-numeric:normal;font-feature-settings:normal;text-align:start;letter-spacing:0px;word-spacing:0px;writing-mode:lr-tb;text-anchor:start;fill:#4d4d4d;fill-opacity:1;stroke:none;stroke-width:0.26458332px;stroke-linecap:butt;stroke-linejoin:miter;stroke-opacity:1"
         aria-label="&amp; Heroism">
        <path
           id="path1437"
           style="stroke-width:0.26458332px;fill:#4d4d4d"
           d="m 29.548287,149.75909 q -0.355533,0.34726 -0.818554,0.55397 -0.458887,0.20257 -0.93431,0.18603 -0.152962,0 -0.297656,-0.0124 -0.144694,-0.0165 -0.338998,-0.062 -0.194303,-0.0455 -0.281119,-0.0661 -0.08268,-0.0207 -0.347266,-0.0992 -0.260449,-0.0827 -0.310059,-0.0951 -0.04134,0.11162 -0.190169,0.1571 -0.148828,0.0455 -0.334863,0.0124 -0.181901,-0.0372 -0.355534,-0.12402 -0.169499,-0.0868 -0.28112,-0.25632 -0.107487,-0.17363 -0.09095,-0.38034 0.0248,-0.31419 0.202571,-0.52503 0.177767,-0.21084 0.458887,-0.21084 0.264583,-0.004 0.463021,0.16536 0.198437,0.16537 0.272851,0.42582 0.07855,0.26045 0.0041,0.51263 0.467154,0.18603 0.930175,0.14056 0.467155,-0.0496 0.876432,-0.28112 0.413412,-0.23565 0.698666,-0.60772 0.454752,-0.59944 0.405143,-1.30638 -0.01654,-0.23564 -0.07855,-0.46715 -0.06201,-0.23151 -0.181901,-0.44649 -0.119889,-0.21497 -0.285254,-0.37207 -0.161231,-0.15709 -0.396875,-0.23977 -0.235645,-0.0827 -0.508496,-0.0579 -0.198438,0.0165 -0.396875,0.15709 -0.194303,0.13643 -0.338997,0.37207 -0.07855,0.12816 -0.111622,0.27699 -0.02894,0.14469 -0.0248,0.25631 0.0041,0.11163 0.02894,0.26872 0.0124,0.0868 0.03721,0.19431 0.0248,0.10335 0.04547,0.17776 0.02067,0.0744 0.05788,0.19844 0.03721,0.12402 0.05374,0.18604 -0.305925,0.004 -0.86403,0.004 -0.558105,-0.004 -0.86403,0 0.103353,-0.0455 0.454753,-0.23565 0.351399,-0.19016 0.388606,-0.21083 -0.0041,-0.0827 -0.03721,-0.31006 -0.02894,-0.23151 -0.03721,-0.3514 0,-0.0248 -0.0124,-0.0372 -0.0124,-0.0124 -0.03721,-0.0165 -0.0248,-0.004 -0.04961,0 -0.0248,0 -0.06615,0.004 -0.04134,0 -0.07028,0 -0.686263,-0.26872 -0.843359,-0.73174 0.388606,0.15296 0.690397,0.0992 0.305924,-0.0538 0.479557,-0.27699 0.177767,-0.22324 0.16123,-0.53743 -0.0041,-0.14056 -0.02067,-0.23565 -0.0124,-0.0992 -0.07441,-0.23151 -0.05788,-0.13642 -0.165365,-0.22324 -0.07855,-0.0661 -0.214974,-0.0827 -0.136426,-0.0165 -0.268717,0.0455 -0.128158,0.062 -0.161231,0.21084 -0.0124,0.16123 0.09922,0.34727 0.115755,0.1819 0.314193,0.28939 -0.63252,0.0248 -0.859896,-0.3266 -0.177767,-0.27698 -0.02894,-0.62838 0.152962,-0.35554 0.529167,-0.52917 0.169499,-0.0827 0.363802,-0.10749 0.343131,-0.0455 0.640788,0.19844 0.30179,0.23978 0.438216,0.66146 0.562239,-0.27699 1.058333,-0.26872 0.500228,0.008 0.909505,0.25218 0.413412,0.24391 0.711068,0.64906 0.297656,0.40101 0.458887,0.9095 0.165364,0.48369 0.157096,1.05007 -0.0041,0.56224 -0.198438,1.05833 -0.206705,0.53744 -0.611849,0.93018 z"
           inkscape:connector-curvature="0" />
        <path
           id="path1439"
           style="stroke-width:0.26458332px;fill:#4d4d4d"
           d="m 33.653463,144.45088 q 0.276986,0.0455 0.512631,0.0703 0.239778,0.0207 0.380338,0.0248 0.144694,0.004 0.413411,0.004 h 3.923275 q -0.148828,0.0951 -0.28112,0.21911 -0.132291,0.12402 -0.252181,0.28526 -0.119889,0.16123 -0.190169,0.33899 -0.06615,0.17777 -0.08682,0.38034 -0.02067,0.20257 0.04134,0.41341 0.03307,0.10749 0.09922,0.20257 0.07028,0.0951 0.136426,0.1571 0.07028,0.0579 0.165365,0.14883 0.09508,0.091 0.16123,0.17777 -0.107487,-0.0165 -0.392741,-0.062 -0.285253,-0.0496 -0.479557,-0.0744 -0.202571,-0.0289 -0.285254,0.0661 -0.08268,0.0909 -0.144694,0.33072 -0.07855,0.28939 -0.09508,0.62839 -0.01654,0.339 0.03307,0.59531 0.06201,0.28526 0.169498,0.40515 0.05788,0.0579 0.14056,0.0661 0.124024,0.0124 0.186035,-0.0372 0.06615,-0.0496 0.05788,-0.15709 -0.0041,-0.11989 -0.07028,-0.31006 -0.194303,0.0786 -0.310059,-0.0868 -0.07028,-0.11162 -0.04548,-0.2191 0.02481,-0.10749 0.115755,-0.16537 0.09095,-0.0579 0.202572,-0.0786 0.115755,-0.0248 0.223242,0.0372 0.194303,0.10749 0.293522,0.41341 0.09922,0.30593 0.04548,0.62425 -0.04961,0.31833 -0.248046,0.44235 -0.107487,0.0785 -0.21084,0.12403 -0.09922,0.0455 -0.202572,0.062 -0.103353,0.0124 -0.169499,0.0165 -0.06615,0.004 -0.186035,0 -0.115755,-0.008 -0.165364,-0.008 v 0.96738 h -2.517676 q -0.169499,0 -0.42168,-0.14883 -0.214974,-0.12402 -0.367936,-0.30592 -0.148828,-0.18604 -0.21084,-0.40515 -0.05788,-0.22324 0.04548,-0.43821 0.16123,-0.31833 0.640787,-0.40101 -0.07028,0.0992 -0.115755,0.17776 -0.04547,0.0744 -0.09508,0.1695 -0.04548,0.0951 -0.05788,0.1695 -0.0124,0.0703 -0.0041,0.14056 0.0124,0.0661 0.07028,0.11576 0.05788,0.0496 0.16123,0.0785 0.248047,0.0786 0.525033,0.0455 0.276985,-0.0372 0.479557,-0.20257 0.417546,-0.339 0.417546,-0.83509 0,-1.25677 0.0083,-1.9389 0,-0.1695 -0.09508,-0.1571 -0.103353,0.008 -0.21084,0.1819 -0.08682,0.14056 -0.09095,0.26872 0,0.0579 -0.0041,0.21497 0,0.1571 -0.0041,0.23565 -0.0041,0.0785 -0.01654,0.19017 -0.0124,0.11162 -0.03721,0.18603 -0.02067,0.0703 -0.06201,0.11576 -0.132291,0.15296 -0.326595,0.23564 -0.194303,0.0786 -0.409277,0.0579 -0.148828,-0.008 -0.239779,-0.0207 -0.09095,-0.0165 -0.214974,-0.0455 -0.119889,-0.0289 -0.210839,-0.0868 -0.08682,-0.062 -0.144694,-0.15296 -0.06201,-0.0992 0.128157,-0.12816 0.07441,-0.0124 0.264584,-0.0165 0.157096,-0.004 0.214973,-0.0124 0.06615,-0.008 0.107487,-0.0537 0.04548,-0.0455 0.06201,-0.12816 0.01654,-0.0827 0.01654,-0.13229 0.0041,-0.0537 0.0041,-0.14056 0,-0.0207 0,-0.0289 v -1.74046 q 0,-0.12403 -0.04961,-0.20671 -0.04961,-0.0827 -0.128157,-0.11162 -0.07855,-0.0331 -0.173633,-0.0413 -0.09508,-0.008 -0.186035,0.0165 -0.119889,0.0207 -0.169499,-0.004 -0.04547,-0.0248 -0.03721,-0.0827 0.0083,-0.062 0.0248,-0.12816 0.02067,-0.0703 0.0083,-0.14469 -0.0083,-0.0744 -0.07028,-0.11989 -0.02067,-0.0124 -0.04134,-0.0496 -0.01654,-0.0413 -0.02894,-0.0827 -0.0083,-0.0455 0.0083,-0.0786 0.02067,-0.0331 0.07028,-0.0331 z"
           inkscape:connector-curvature="0" />
        <path
           id="path1441"
           style="stroke-width:0.26458332px;fill:#4d4d4d"
           d="m 42.248287,147.55147 q -0.496093,0.0413 -0.8847,0.49196 -0.198438,0.22738 -0.268718,0.5457 -0.07028,0.31833 0.01654,0.60358 0.09922,0.34313 0.334863,0.55811 0.235645,0.21497 0.545703,0.26872 0.429948,0.0744 0.673861,-0.23151 0.03307,-0.0372 0.04548,-0.0661 0.01654,-0.0331 0.02481,-0.0661 0.0083,-0.0372 -0.01654,-0.0661 -0.02067,-0.0289 -0.07441,-0.0496 -0.181901,-0.0786 -0.318326,-0.21911 -0.136426,-0.14469 -0.181902,-0.33073 -0.04547,-0.18603 0.05788,-0.38447 0.07855,-0.14469 0.21084,-0.22738 0.132292,-0.0827 0.264583,-0.0827 0.136426,0 0.260449,0.0579 0.08268,0.0413 0.136426,0.0413 0.05788,0 0.08268,-0.0289 0.0248,-0.0289 0.03721,-0.0786 0.0124,-0.0496 0.0083,-0.0909 0,-0.0455 -0.0041,-0.0827 -0.02894,-0.16123 -0.14056,-0.28112 -0.107487,-0.12402 -0.256315,-0.1819 -0.144694,-0.0579 -0.289388,-0.0827 -0.144694,-0.0248 -0.264584,-0.0165 z m -2.02985,-2.25723 q 0.644922,-0.57464 1.389063,-0.74827 0.748274,-0.17777 1.463476,0.0579 0.715202,0.23564 1.298112,0.84336 0.214974,0.22737 0.37207,0.5333 0.157097,0.30179 0.239779,0.60358 0.08268,0.29765 0.119889,0.61185 0.03721,0.31419 0.03307,0.5705 -0.0041,0.25219 -0.03721,0.45476 0.996322,1.42627 0.28112,2.05465 -0.173633,0.14056 -0.434082,0.22324 -0.256315,0.0827 -0.483691,0.0786 -0.223243,0 -0.326595,-0.0827 -0.09922,-0.0785 -0.124024,-0.15296 -0.02481,-0.0786 0.02481,-0.15296 0.05374,-0.0744 0.107487,-0.12403 0.05788,-0.0537 0.152962,-0.12402 0.09922,-0.0744 0.132292,-0.10335 0.169498,-0.1571 0.252181,-0.3142 0.08268,-0.15709 0.08682,-0.26458 0.0124,-0.26458 -0.07855,-0.26045 -0.03721,0.004 -0.07855,0.0579 -0.202572,0.24391 -0.334864,0.39687 -0.132291,0.14883 -0.334863,0.34313 -0.198437,0.19431 -0.367936,0.3142 -0.169499,0.11575 -0.392741,0.21497 -0.223242,0.0992 -0.454752,0.13229 -0.33073,0.0538 -0.694532,0.0413 -0.359668,-0.0124 -0.644922,-0.0909 -0.285253,-0.0827 -0.578776,-0.23151 -0.293522,-0.15296 -0.525032,-0.33486 -0.487826,-0.38861 -0.735872,-0.87643 -0.248047,-0.48783 -0.289388,-1.10795 -0.06201,-0.81442 0.206705,-1.46761 0.268718,-0.65319 0.756543,-1.09554 z"
           inkscape:connector-curvature="0" />
        <path
           id="path1443"
           style="stroke-width:0.26458332px;fill:#4d4d4d"
           d="m 48.647896,144.66172 q 0.198438,0.21498 0.198438,0.5209 0,0.30179 -0.198438,0.51677 -0.198437,0.21497 -0.479557,0.21497 -0.276986,0 -0.475423,-0.21497 -0.198438,-0.21498 -0.198438,-0.51677 0,-0.30592 0.198438,-0.5209 0.198437,-0.2191 0.475423,-0.2191 0.28112,0 0.479557,0.2191 z m 1.000456,1.33532 q 0.04961,-0.0579 0.239779,-0.0579 0.144694,0 0.132291,0.0537 0,0.008 -0.0041,0.0207 -0.396875,0.59945 -0.632519,1.0542 -0.231511,0.45475 -0.405144,1.04593 -0.103352,0.34727 -0.119889,0.72347 -0.01654,0.37207 0.06201,0.7276 0.08268,0.35554 0.260449,0.59532 0.03721,0.0496 0.05788,0.10335 0.0248,0.0496 0.02894,0.10335 0.0041,0.0537 -0.03721,0.0868 -0.03721,0.0331 -0.124023,0.0331 h -2.497005 q -0.08682,0 -0.157096,-0.0827 -0.07028,-0.0868 -0.08268,-0.1695 -0.0041,-0.0207 0,-0.0413 0.0041,-0.0207 0.01654,-0.0455 0.0124,-0.0248 0.02067,-0.0413 0.0124,-0.0207 0.03721,-0.0496 0.02481,-0.0289 0.03721,-0.0413 0.0124,-0.0124 0.04134,-0.0455 0.02894,-0.0331 0.03721,-0.0413 0.08682,-0.0992 0.39274,-0.51677 0.305925,-0.42168 0.686263,-0.95084 0.384473,-0.53331 0.558106,-0.76068 -0.347266,0.0661 -0.657324,0.062 -0.310059,-0.008 -0.578776,-0.11576 -0.268718,-0.10748 -0.475424,-0.28938 -0.202571,-0.1819 -0.330729,-0.45889 -0.128157,-0.28112 -0.16123,-0.63252 -0.03307,-0.38034 0.07028,-0.81442 0.103353,-0.43822 0.322461,-0.77308 0.04134,-0.062 0.09922,-0.10335 0.06201,-0.0455 0.115756,-0.0537 0.05788,-0.008 0.09095,0.0496 0.02067,0.0413 0.02481,0.1695 0.0083,0.12816 0.0041,0.30593 -0.0041,0.17363 -0.0041,0.19843 0.0083,0.41342 0.07855,0.67386 0.07441,0.25632 0.248047,0.42995 0.334863,0.34313 1.09554,0.37621 0.405143,0.0165 0.818555,-0.19844 0.413411,-0.21497 0.690397,-0.52917 z"
           inkscape:connector-curvature="0" />
        <path
           id="path1445"
           style="stroke-width:0.26458332px;fill:#4d4d4d"
           d="m 51.851834,145.34385 q 0.186036,0.0124 0.318327,0.16123 0.09508,0.11162 0.11989,0.27699 0.02894,0.16123 -0.0083,0.32246 -0.03307,0.1571 -0.107487,0.29766 -0.06201,0.10748 -0.186035,0.19843 -0.119889,0.091 -0.256315,0.11989 -0.132292,0.0331 -0.124023,0.0827 0.0124,0.0579 0.152962,0.0785 0.04548,0.008 0.09095,0.004 0.33073,-0.0331 0.570508,-0.23151 0.239779,-0.19844 0.289388,-0.57878 0.03721,-0.40514 -0.115755,-0.68626 -0.268717,-0.49196 -0.93431,-0.38861 -0.223242,0.0331 -0.429948,0.20671 -0.206705,0.17363 -0.289388,0.45888 -0.107487,0.36381 0.03721,0.71107 0.09095,0.21911 0.405143,0.26872 0.07028,0.0165 0.14056,0.0124 0.07028,-0.008 0.107487,-0.062 0.08682,-0.12402 0.0124,-0.27699 -0.02894,-0.0537 -0.09095,-0.0124 -0.05788,0.0372 -0.136426,0.0124 -0.07441,-0.0289 -0.136425,-0.0992 -0.09095,-0.10749 -0.111621,-0.27286 -0.0124,-0.14469 0.07441,-0.28112 0.08682,-0.14056 0.214974,-0.22737 0.16123,-0.11162 0.39274,-0.0951 z m -0.446484,2.07119 q -0.702799,-0.38447 -0.901237,-0.91777 -0.115755,-0.31833 -0.07028,-0.76068 0.04134,-0.41754 0.301791,-0.74827 0.417545,-0.52503 1.124479,-0.52917 0.657324,0 1.008724,0.48783 0.367936,0.51676 0.310058,1.17822 -0.02067,0.21084 -0.09922,0.39688 -0.07441,0.1819 -0.202571,0.33072 -0.124024,0.1447 -0.235645,0.23978 -0.111621,0.0951 -0.268717,0.20671 -0.06615,0.0455 -0.227376,0.15296 -0.157097,0.10749 -0.248047,0.17363 -0.08682,0.0661 -0.21084,0.1695 -0.124024,0.10336 -0.21084,0.21498 -0.08268,0.11162 -0.14056,0.23978 -0.06615,0.14469 -0.107487,0.34313 -0.03721,0.19843 -0.02067,0.33073 0.04134,0.42168 0.285253,0.69453 0.161231,0.1819 0.372071,0.26871 0.214974,0.0868 0.425814,0.0827 0.210839,-0.008 0.417545,-0.0909 0.276986,-0.11576 0.529167,-0.36381 0.243912,-0.24391 0.248047,-0.72347 0,-0.18603 -0.07441,-0.31832 -0.07442,-0.13643 -0.177767,-0.19844 -0.09095,-0.0579 -0.09095,0.0868 0,0.0289 0.0083,0.0951 0.0041,0.0537 0.0041,0.0661 -0.0041,0.11162 -0.0124,0.19843 -0.0083,0.0827 -0.02481,0.1695 -0.0124,0.0827 -0.03721,0.1447 -0.0248,0.062 -0.06201,0.11575 -0.03721,0.0538 -0.09095,0.0868 -0.04961,0.0331 -0.119889,0.0537 -0.06615,0.0165 -0.157097,0.0165 -0.09095,0 -0.202571,-0.0207 -0.252181,-0.0496 -0.380339,-0.24805 -0.124023,-0.19844 -0.124023,-0.51263 0,-0.29766 0.165364,-0.5581 0.169499,-0.26045 0.384473,-0.33073 0.157096,-0.0372 0.318327,-0.0207 0.16123,0.0165 0.256315,0.0537 0.516764,0.21497 0.735872,0.62425 0.223243,0.40514 0.111621,0.97565 -0.04961,0.24391 -0.181901,0.44235 -0.132291,0.19431 -0.334863,0.38034 -0.310058,0.28525 -0.756543,0.36794 -0.44235,0.0785 -0.855761,-0.0868 -0.186036,-0.0786 -0.363802,-0.21911 -0.173633,-0.14469 -0.297657,-0.32659 -0.285254,-0.41341 -0.310058,-0.83509 -0.01654,-0.23565 0.0248,-0.45889 0.04548,-0.22324 0.148828,-0.43408 0.103353,-0.21084 0.186036,-0.34727 0.08682,-0.13642 0.23151,-0.339 z"
           inkscape:connector-curvature="0" />
        <path
           id="path1447"
           style="stroke-width:0.26458332px;fill:#4d4d4d"
           d="m 56.89132,144.47569 h 1.542024 q 0.314193,0 -0.169499,0.52917 -0.0124,0.008 -0.01654,0.0165 -0.206706,0.22738 -0.334863,0.38447 -0.128158,0.15297 -0.293522,0.39688 -0.161231,0.23978 -0.248047,0.46302 -0.115755,0.28939 -0.206706,0.57878 -0.09095,0.28525 -0.165365,0.63252 -0.07028,0.34726 -0.08682,0.66145 -0.01654,0.31006 0.04134,0.62839 0.05788,0.31833 0.198438,0.57051 0.169498,0.29765 0.450618,0.43408 0.285254,0.13643 0.566374,0.0744 0.235644,-0.0537 0.446484,-0.35966 0.214974,-0.30593 0.268718,-0.61185 0.04547,-0.29353 -0.02894,-0.58705 -0.07441,-0.29765 -0.256315,-0.37207 -0.107487,-0.0455 -0.161231,0.0455 -0.04547,0.0827 0.02894,0.13229 0.02481,0.0165 0.06201,0.0248 0.111621,0.0207 0.152962,0.14056 0.04134,0.11989 0.0041,0.26872 -0.03307,0.14883 -0.132292,0.26045 -0.103352,0.11989 -0.264583,0.18604 -0.157096,0.062 -0.322461,0.0537 -0.380338,-0.0124 -0.529166,-0.29352 -0.128158,-0.24392 -0.0041,-0.56638 0.124024,-0.32659 0.3514,-0.50022 0.248047,-0.19431 0.553972,-0.19431 0.16123,-0.004 0.314192,0.0413 0.152962,0.0413 0.285254,0.13229 0.136426,0.091 0.235645,0.25219 0.09922,0.16123 0.132291,0.3762 0.07855,0.45475 0.0083,0.82269 -0.07028,0.3638 -0.297657,0.69866 -0.227376,0.34314 -0.545703,0.50437 -0.318327,0.16123 -0.611849,0.16536 -0.227376,0.008 -0.425814,-0.0661 -0.198437,-0.0744 -0.351399,-0.2067 -0.152962,-0.13229 -0.264584,-0.28525 -0.111621,-0.1571 -0.190169,-0.33487 -0.107487,-0.23564 -0.169498,-0.5457 -0.05788,-0.31419 -0.05374,-0.61598 0.0041,-0.70694 0.08268,-1.09968 0.02481,-0.11575 -0.0041,-0.1695 -0.02894,-0.0579 -0.09508,-0.0537 -0.06201,0.004 -0.132292,0.0413 -0.07028,0.0331 -0.132292,0.0868 -0.500228,0.43408 -0.690397,0.85576 -0.14056,0.31419 -0.169499,0.66559 -0.0248,0.34727 0.06615,0.63252 0.09509,0.30592 0.272852,0.50436 0.177767,0.19844 0.434082,0.35967 0.05788,0.0372 0.06615,0.0992 0.0124,0.062 -0.02481,0.11162 -0.03307,0.0455 -0.08268,0.0413 l -0.992188,-0.0868 q -0.181901,-0.0124 -0.347265,-0.19016 -0.161231,-0.18191 -0.252181,-0.41342 -0.08682,-0.23151 -0.09508,-0.43408 -0.01654,-0.28525 0.03721,-0.54984 0.05374,-0.26871 0.14056,-0.46715 0.08682,-0.20257 0.239779,-0.41755 0.157096,-0.2191 0.293522,-0.36793 0.136425,-0.14883 0.338997,-0.3514 0.260449,-0.25632 0.56224,-0.44649 0.30179,-0.19017 0.74414,-0.40514 0.04134,-0.10749 0.173633,-0.37207 0.132292,-0.26872 0.165365,-0.339 0.01654,-0.0331 0.06201,-0.12815 0.04961,-0.0992 0.06615,-0.14056 0.01654,-0.0413 0.04134,-0.11163 0.02894,-0.0703 0.03307,-0.12402 0.0041,-0.0579 0,-0.11162 -0.0124,-0.0992 -0.06615,-0.14056 -0.04961,-0.0413 -0.107487,-0.0372 -0.05374,0 -0.124023,-0.008 -0.07028,-0.0124 -0.111621,-0.0537 -0.09095,-0.091 -0.05788,-0.20257 0.03307,-0.11162 0.152963,-0.11162 z"
           inkscape:connector-curvature="0" />
        <path
           id="path1449"
           style="stroke-width:0.26458332px;fill:#4d4d4d"
           d="m 61.124654,149.20512 q 0.239779,0.2191 0.239779,0.5333 0,0.31006 -0.239779,0.5333 -0.235644,0.21911 -0.570508,0.21911 -0.330729,0 -0.570508,-0.21911 -0.235644,-0.22324 -0.235644,-0.5333 0,-0.3142 0.235644,-0.5333 0.239779,-0.22325 0.570508,-0.22325 0.334864,0 0.570508,0.22325 z m 0,-2.25723 q 0.239779,0.21911 0.239779,0.52917 0,0.31005 -0.239779,0.5333 -0.235644,0.2191 -0.570508,0.2191 -0.330729,0 -0.570508,-0.2191 -0.235644,-0.22325 -0.235644,-0.5333 0,-0.31006 0.235644,-0.52917 0.239779,-0.22324 0.570508,-0.22324 0.334864,0 0.570508,0.22324 z m 0,-2.26136 q 0.239779,0.21911 0.239779,0.5333 0,0.31006 -0.239779,0.5333 -0.235644,0.21911 -0.570508,0.21911 -0.330729,0 -0.570508,-0.21911 -0.235644,-0.22324 -0.235644,-0.5333 0,-0.31419 0.235644,-0.5333 0.239779,-0.22324 0.570508,-0.22324 0.334864,0 0.570508,0.22324 z"
           inkscape:connector-curvature="0" />
        <path
           id="path1451"
           style="stroke-width:0.26458332px;fill:#4d4d4d"
           d="m 64.489824,148.96534 q -0.235645,-0.19844 -0.318327,-0.4961 -0.08268,-0.30179 0.01654,-0.58291 0.09922,-0.28112 0.355534,-0.42581 0.144694,-0.0827 0.347265,-0.0786 0.206706,0 0.405143,0.0786 0.202572,0.0786 0.363802,0.26045 0.165365,0.17777 0.219108,0.42581 0.181901,-0.19843 0.272852,-0.5333 0.09509,-0.33486 0.08268,-0.6904 -0.0083,-0.35553 -0.111621,-0.64905 -0.169499,-0.47956 -0.58291,-0.81856 -0.297656,-0.23977 -0.65319,-0.33073 -0.3514,-0.0951 -0.702799,-0.0579 -0.7028,0.0786 -1.182357,0.76894 -0.165365,0.24392 -0.256315,0.58291 -0.08682,0.33487 -0.07855,0.68627 0.0083,0.50022 0.285253,0.95498 0.276986,0.45475 0.744141,0.72347 0.376204,0.21084 0.79375,0.1819 z m 2.013314,-3.61735 q 0.376204,0.38447 0.595312,0.86816 0.223242,0.47956 0.235645,0.95912 0.02067,0.75654 -0.152963,1.29397 -0.23151,0.71521 -0.661458,1.2113 -0.429948,0.49196 -1.050065,0.6904 -0.347265,0.11162 -0.822689,0.12402 -0.475423,0.0124 -0.79375,-0.0703 -0.434082,-0.0992 -0.806152,-0.35967 -0.37207,-0.26458 -0.65319,-0.64079 -0.268717,-0.35553 -0.429948,-0.77308 -0.16123,-0.41754 -0.190169,-0.81855 -0.07028,-1.02526 0.322461,-1.82314 0.214974,-0.44235 0.541569,-0.76895 0.326595,-0.33073 0.702799,-0.5085 0.376205,-0.1819 0.802018,-0.23564 0.425814,-0.0579 0.835092,0.0207 0.409277,0.0744 0.806152,0.28939 0.401009,0.21084 0.719336,0.54157 z"
           inkscape:connector-curvature="0" />
      </g>
    </g>
  </g>
</svg>
